{
  "accessors": [
    {
      "bufferView": 2,
      "componentType": 5126,
      "count": 4514,
      "max": [
        8.908183097839355,
        8.901697158813477,
        0.6640000343322754
      ],
      "min": [
        -8.913963317871094,
        -8.901697158813477,
        -0.6640000343322754
      ],
      "type": "VEC3"
    },
    {
      "bufferView": 2,
      "byteOffset": 54168,
      "componentType": 5126,
      "count": 4514,
      "max": [
        0.9999421238899231,
        1.0,
        1.0
      ],
      "min": [
        -0.9999164342880249,
        -1.0,
        -1.0
      ],
      "type": "VEC3"
    },
    {
      "bufferView": 3,
      "componentType": 5126,
      "count": 4514,
      "max": [
        0.9995870590209961,
        0.9997822046279907,
        1.0,
        1.0
      ],
      "min": [
        -0.9998923540115356,
        -0.9999999403953552,
        -1.0,
        1.0
      ],
      "type": "VEC4"
    },
    {
      "bufferView": 1,
      "componentType": 5126,
      "count": 4514,
      "max": [
        0.99609375,
        0.9960932731628418
      ],
      "min": [
        0.00390625,
        0.00390625
      ],
      "type": "VEC2"
    },
    {
      "bufferView": 0,
      "componentType": 5125,
      "count": 17922,
      "type": "SCALAR"
    }
  ],
  "asset": {
    "extras": {
      "author": "C.U.V (https://sketchfab.com/C.U.V)",
      "license": "CC-BY-4.0 (http://creativecommons.org/licenses/by/4.0/)",
      "source": "https://sketchfab.com/3d-models/pearl-necklace-badddc19523f4dc08344e8da5b143dae",
      "title": "Pearl Necklace"
    },
    "generator": "Sketchfab-12.66.0",
    "version": "2.0"
  },
  "bufferViews": [
    {
      "buffer": 0,
      "byteLength": 71688,
      "name": "floatBufferViews",
      "target": 34963
    },
    {
      "buffer": 0,
      "byteLength": 36112,
      "byteOffset": 71688,
      "byteStride": 8,
      "name": "floatBufferViews",
      "target": 34962
    },
    {
      "buffer": 0,
      "byteLength": 108336,
      "byteOffset": 107800,
      "byteStride": 12,
      "name": "floatBufferViews",
      "target": 34962
    },
    {
      "buffer": 0,
      "byteLength": 72224,
      "byteOffset": 216136,
      "byteStride": 16,
      "name": "floatBufferViews",
      "target": 34962
    }
  ],
  "buffers": [
    {
      "byteLength": 288360,
      "uri": "scene.bin"
    }
  ],
  "extensionsUsed": [
    "KHR_materials_clearcoat"
  ],
  "images": [
    {
      "uri": "textures/Pearl_Necklace_baseColor.png"
    },
    {
      "uri": "textures/Pearl_Necklace_metallicRoughness.png"
    },
    {
      "uri": "textures/Pearl_Necklace_normal.png"
    },
    {
      "uri": "textures/Pearl_Necklace_clearcoat.png"
    }
  ],
  "materials": [
    {
      "extensions": {
        "KHR_materials_clearcoat": {
          "clearcoatFactor": 0.4872179357247357,
          "clearcoatNormalTexture": {
            "index": 2
          },
          "clearcoatRoughnessFactor": 0.14733373912600542,
          "clearcoatTexture": {
            "index": 3
          }
        }
      },
      "name": "Pearl_Necklace",
      "normalTexture": {
        "index": 2
      },
      "occlusionTexture": {
        "index": 1
      },
      "pbrMetallicRoughness": {
        "baseColorTexture": {
          "index": 0
        },
        "metallicRoughnessTexture": {
          "index": 1
        }
      }
    }
  ],
  "meshes": [
    {
      "name": "PearlNecklace_Pearl Necklace_0",
      "primitives": [
        {
          "attributes": {
            "NORMAL": 1,
            "POSITION": 0,
            "TANGENT": 2,
            "TEXCOORD_0": 3
          },
          "indices": 4,
          "material": 0,
          "mode": 4
        }
      ]
    }
  ],
  "nodes": [
    {
      "children": [
        1
      ],
      "matrix": [
        0.009999999776482582,
        0.0,
        0.0,
        0.0,
        0.0,
        2.2204459996194763e-18,
        -0.009999999776482582,
        0.0,
        0.0,
        0.009999999776482582,
        2.2204459996194763e-18,
        0.0,
        0.0,
        -2.6410873487904916e-11,
        -1.34210142732627e-06,
        1.0
      ],
      "name": "Sketchfab_model"
    },
    {
      "children": [
        2
      ],
      "matrix": [
        1.0,
        0.0,
        0.0,
        0.0,
        0.0,
        0.0,
        1.0,
        0.0,
        0.0,
        -1.0,
        0.0,
        0.0,
        0.0,
        0.0,
        0.0,
        1.0
      ],
      "name": "9f61afefaf714979b0a2a8ab7f41e1f0.fbx"
    },
    {
      "children": [
        3
      ],
      "name": "RootNode"
    },
    {
      "children": [
        4
      ],
      "matrix": [
        1.0,
        0.0,
        0.0,
        0.0,
        0.0,
        0.9999999999999867,
        1.6292067073209113e-07,
        0.0,
        0.0,
        -1.6292067073209113e-07,
        0.9999999999999867,
        0.0,
        0.0,
        0.0,
        0.0,
        1.0
      ],
      "name": "PearlNecklace"
    },
    {
      "mesh": 0,
      "name": "PearlNecklace_Pearl Necklace_0"
    }
  ],
  "samplers": [
    {
      "magFilter": 9729,
      "minFilter": 9987,
      "wrapS": 10497,
      "wrapT": 10497
    }
  ],
  "scene": 0,
  "scenes": [
    {
      "name": "Sketchfab_Scene",
      "nodes": [
        0
      ]
    }
  ],
  "textures": [
    {
      "sampler": 0,
      "source": 0
    },
    {
      "sampler": 0,
      "source": 1
    },
    {
      "sampler": 0,
      "source": 2
    },
    {
      "sampler": 0,
      "source": 3
    }
  ]
}
